<mxfile modified="2022-08-08T09:36:57.176Z" host="app.diagrams.net" agent="5.0 (Windows NT 10.0; Win64; x64) AppleWebKit/537.36 (KHTML, like Gecko) Chrome/103.0.0.0 Safari/537.36" etag="Nb-L049xablDXNmHecUD" version="20.2.3" type="github" pages="4">
  <diagram id="Ht1M8jgEwFfnCIfOTk4-" name="Page-1">
    <mxGraphModel dx="1422" dy="851" grid="1" gridSize="10" guides="1" tooltips="1" connect="1" arrows="1" fold="1" page="1" pageScale="1" pageWidth="1169" pageHeight="827" math="0" shadow="0">
      <root>
        <mxCell id="0" />
        <mxCell id="1" parent="0" />
        <mxCell id="UEzPUAAOIrF-is8g5C7q-128" style="edgeStyle=orthogonalEdgeStyle;rounded=0;orthogonalLoop=1;jettySize=auto;html=1;startArrow=open;startFill=0;endArrow=open;endFill=0;strokeWidth=2;strokeColor=#808080;" parent="1" source="UEzPUAAOIrF-is8g5C7q-109" target="UEzPUAAOIrF-is8g5C7q-114" edge="1">
          <mxGeometry relative="1" as="geometry">
            <Array as="points">
              <mxPoint x="310.5" y="461.5" />
              <mxPoint x="310.5" y="376.5" />
            </Array>
          </mxGeometry>
        </mxCell>
        <mxCell id="UEzPUAAOIrF-is8g5C7q-124" style="edgeStyle=orthogonalEdgeStyle;rounded=0;orthogonalLoop=1;jettySize=auto;html=1;startArrow=open;startFill=0;endArrow=open;endFill=0;strokeWidth=2;strokeColor=#808080;" parent="1" source="UEzPUAAOIrF-is8g5C7q-110" target="UEzPUAAOIrF-is8g5C7q-112" edge="1">
          <mxGeometry relative="1" as="geometry">
            <Array as="points">
              <mxPoint x="300" y="242" />
              <mxPoint x="300" y="102" />
            </Array>
            <mxPoint x="412.5" y="101.5" as="targetPoint" />
          </mxGeometry>
        </mxCell>
        <mxCell id="UEzPUAAOIrF-is8g5C7q-127" style="edgeStyle=orthogonalEdgeStyle;rounded=0;orthogonalLoop=1;jettySize=auto;html=1;startArrow=open;startFill=0;endArrow=open;endFill=0;strokeWidth=2;strokeColor=#808080;" parent="1" source="UEzPUAAOIrF-is8g5C7q-110" target="UEzPUAAOIrF-is8g5C7q-114" edge="1">
          <mxGeometry relative="1" as="geometry">
            <Array as="points">
              <mxPoint x="311.5" y="281.5" />
              <mxPoint x="311.5" y="361.5" />
            </Array>
          </mxGeometry>
        </mxCell>
        <mxCell id="UEzPUAAOIrF-is8g5C7q-126" style="edgeStyle=orthogonalEdgeStyle;rounded=0;orthogonalLoop=1;jettySize=auto;html=1;startArrow=open;startFill=0;endArrow=open;endFill=0;strokeWidth=2;strokeColor=#808080;" parent="1" source="UEzPUAAOIrF-is8g5C7q-113" target="UEzPUAAOIrF-is8g5C7q-114" edge="1">
          <mxGeometry relative="1" as="geometry" />
        </mxCell>
        <mxCell id="UEzPUAAOIrF-is8g5C7q-129" style="edgeStyle=orthogonalEdgeStyle;rounded=0;orthogonalLoop=1;jettySize=auto;html=1;startArrow=open;startFill=0;endArrow=open;endFill=0;strokeWidth=2;strokeColor=#808080;" parent="1" source="UEzPUAAOIrF-is8g5C7q-114" target="UEzPUAAOIrF-is8g5C7q-115" edge="1">
          <mxGeometry relative="1" as="geometry">
            <Array as="points">
              <mxPoint x="510.5" y="391.5" />
              <mxPoint x="510.5" y="391.5" />
            </Array>
          </mxGeometry>
        </mxCell>
        <mxCell id="UEzPUAAOIrF-is8g5C7q-130" style="edgeStyle=orthogonalEdgeStyle;rounded=0;orthogonalLoop=1;jettySize=auto;html=1;startArrow=open;startFill=0;endArrow=open;endFill=0;strokeWidth=2;strokeColor=#808080;" parent="1" source="UEzPUAAOIrF-is8g5C7q-115" target="UEzPUAAOIrF-is8g5C7q-116" edge="1">
          <mxGeometry relative="1" as="geometry">
            <Array as="points">
              <mxPoint x="700" y="352" />
              <mxPoint x="700" y="53" />
            </Array>
          </mxGeometry>
        </mxCell>
        <mxCell id="UEzPUAAOIrF-is8g5C7q-131" style="edgeStyle=orthogonalEdgeStyle;rounded=0;orthogonalLoop=1;jettySize=auto;html=1;startArrow=open;startFill=0;endArrow=open;endFill=0;strokeWidth=2;strokeColor=#808080;" parent="1" source="UEzPUAAOIrF-is8g5C7q-115" target="UEzPUAAOIrF-is8g5C7q-117" edge="1">
          <mxGeometry relative="1" as="geometry">
            <Array as="points">
              <mxPoint x="720.5" y="361.5" />
              <mxPoint x="720.5" y="162.5" />
            </Array>
          </mxGeometry>
        </mxCell>
        <mxCell id="UEzPUAAOIrF-is8g5C7q-132" style="edgeStyle=orthogonalEdgeStyle;rounded=0;orthogonalLoop=1;jettySize=auto;html=1;startArrow=open;startFill=0;endArrow=open;endFill=0;strokeWidth=2;strokeColor=#808080;" parent="1" source="UEzPUAAOIrF-is8g5C7q-115" target="UEzPUAAOIrF-is8g5C7q-119" edge="1">
          <mxGeometry relative="1" as="geometry">
            <Array as="points">
              <mxPoint x="760" y="372" />
              <mxPoint x="760" y="280" />
            </Array>
          </mxGeometry>
        </mxCell>
        <mxCell id="UEzPUAAOIrF-is8g5C7q-133" style="edgeStyle=orthogonalEdgeStyle;rounded=0;orthogonalLoop=1;jettySize=auto;html=1;startArrow=open;startFill=0;endArrow=open;endFill=0;strokeWidth=2;strokeColor=#808080;" parent="1" source="UEzPUAAOIrF-is8g5C7q-115" target="UEzPUAAOIrF-is8g5C7q-120" edge="1">
          <mxGeometry relative="1" as="geometry">
            <Array as="points">
              <mxPoint x="760.5" y="381.5" />
              <mxPoint x="760.5" y="415.5" />
            </Array>
          </mxGeometry>
        </mxCell>
        <mxCell id="UEzPUAAOIrF-is8g5C7q-134" style="edgeStyle=orthogonalEdgeStyle;rounded=0;orthogonalLoop=1;jettySize=auto;html=1;startArrow=open;startFill=0;endArrow=open;endFill=0;strokeWidth=2;strokeColor=#808080;" parent="1" source="UEzPUAAOIrF-is8g5C7q-115" target="UEzPUAAOIrF-is8g5C7q-121" edge="1">
          <mxGeometry relative="1" as="geometry">
            <Array as="points">
              <mxPoint x="740.5" y="391.5" />
              <mxPoint x="740.5" y="530.5" />
            </Array>
          </mxGeometry>
        </mxCell>
        <mxCell id="UEzPUAAOIrF-is8g5C7q-135" style="edgeStyle=orthogonalEdgeStyle;rounded=0;orthogonalLoop=1;jettySize=auto;html=1;startArrow=open;startFill=0;endArrow=open;endFill=0;strokeWidth=2;strokeColor=#808080;" parent="1" source="UEzPUAAOIrF-is8g5C7q-115" target="UEzPUAAOIrF-is8g5C7q-122" edge="1">
          <mxGeometry relative="1" as="geometry">
            <Array as="points">
              <mxPoint x="720.5" y="401.5" />
              <mxPoint x="720.5" y="653.5" />
            </Array>
          </mxGeometry>
        </mxCell>
        <mxCell id="UEzPUAAOIrF-is8g5C7q-136" style="edgeStyle=orthogonalEdgeStyle;rounded=0;orthogonalLoop=1;jettySize=auto;html=1;startArrow=open;startFill=0;endArrow=open;endFill=0;strokeWidth=2;strokeColor=#808080;" parent="1" source="UEzPUAAOIrF-is8g5C7q-115" target="UEzPUAAOIrF-is8g5C7q-123" edge="1">
          <mxGeometry relative="1" as="geometry">
            <Array as="points">
              <mxPoint x="700" y="412" />
              <mxPoint x="700" y="730" />
            </Array>
          </mxGeometry>
        </mxCell>
        <mxCell id="UEzPUAAOIrF-is8g5C7q-137" value="" style="edgeStyle=orthogonalEdgeStyle;rounded=0;orthogonalLoop=1;jettySize=auto;html=1;startArrow=none;startFill=0;endArrow=open;endFill=0;strokeWidth=2;strokeColor=#808080;" parent="1" source="UEzPUAAOIrF-is8g5C7q-117" target="UEzPUAAOIrF-is8g5C7q-118" edge="1">
          <mxGeometry relative="1" as="geometry" />
        </mxCell>
        <mxCell id="UEzPUAAOIrF-is8g5C7q-139" style="edgeStyle=orthogonalEdgeStyle;rounded=0;orthogonalLoop=1;jettySize=auto;html=1;startArrow=open;startFill=0;endArrow=open;endFill=0;strokeWidth=2;strokeColor=#808080;" parent="1" source="UEzPUAAOIrF-is8g5C7q-110" target="UEzPUAAOIrF-is8g5C7q-112" edge="1">
          <mxGeometry relative="1" as="geometry">
            <mxPoint x="270.2846463484759" y="261.67647058823536" as="sourcePoint" />
            <mxPoint x="412.5" y="121.5" as="targetPoint" />
            <Array as="points">
              <mxPoint x="311" y="262" />
              <mxPoint x="311" y="122" />
            </Array>
          </mxGeometry>
        </mxCell>
        <mxCell id="UEzPUAAOIrF-is8g5C7q-141" style="edgeStyle=orthogonalEdgeStyle;rounded=0;orthogonalLoop=1;jettySize=auto;html=1;startArrow=open;startFill=0;endArrow=open;endFill=0;strokeWidth=2;strokeColor=#808080;" parent="1" source="UEzPUAAOIrF-is8g5C7q-113" target="UEzPUAAOIrF-is8g5C7q-114" edge="1">
          <mxGeometry relative="1" as="geometry">
            <mxPoint x="500.5" y="260.22413793103453" as="sourcePoint" />
            <mxPoint x="418.4655172413793" y="347.5" as="targetPoint" />
            <Array as="points">
              <mxPoint x="529.5" y="351.5" />
            </Array>
          </mxGeometry>
        </mxCell>
        <mxCell id="UEzPUAAOIrF-is8g5C7q-142" style="edgeStyle=orthogonalEdgeStyle;rounded=0;orthogonalLoop=1;jettySize=auto;html=1;startArrow=open;startFill=0;endArrow=open;endFill=0;strokeWidth=2;strokeColor=#808080;" parent="1" source="UEzPUAAOIrF-is8g5C7q-114" target="UEzPUAAOIrF-is8g5C7q-115" edge="1">
          <mxGeometry relative="1" as="geometry">
            <mxPoint x="457.5" y="386.5" as="sourcePoint" />
            <mxPoint x="590.5" y="386.5" as="targetPoint" />
            <Array as="points">
              <mxPoint x="510.5" y="371.5" />
              <mxPoint x="510.5" y="371.5" />
            </Array>
          </mxGeometry>
        </mxCell>
        <mxCell id="UEzPUAAOIrF-is8g5C7q-109" value="data lake CLI" style="outlineConnect=0;gradientColor=none;fontColor=#545B64;strokeColor=none;fillColor=#879196;dashed=0;verticalLabelPosition=bottom;verticalAlign=top;align=center;html=1;fontSize=12;fontStyle=0;aspect=fixed;shape=mxgraph.aws4.illustration_desktop;pointerEvents=1;labelBackgroundColor=#ffffff;" parent="1" vertex="1">
          <mxGeometry x="160.5" y="415.5" width="100" height="91" as="geometry" />
        </mxCell>
        <mxCell id="UEzPUAAOIrF-is8g5C7q-110" value="data lake console" style="outlineConnect=0;gradientColor=none;fontColor=#545B64;strokeColor=none;fillColor=#879196;dashed=0;verticalLabelPosition=bottom;verticalAlign=top;align=center;html=1;fontSize=12;fontStyle=0;aspect=fixed;shape=mxgraph.aws4.illustration_notification;pointerEvents=1;labelBackgroundColor=#ffffff;" parent="1" vertex="1">
          <mxGeometry x="160.5" y="221.5" width="100" height="81" as="geometry" />
        </mxCell>
        <mxCell id="UEzPUAAOIrF-is8g5C7q-112" value="Active&lt;br&gt;Directory" style="outlineConnect=0;fontColor=#232F3E;gradientColor=#F54749;gradientDirection=north;fillColor=#C7131F;strokeColor=#ffffff;dashed=0;verticalLabelPosition=bottom;verticalAlign=top;align=center;html=1;fontSize=12;fontStyle=0;aspect=fixed;shape=mxgraph.aws4.resourceIcon;resIcon=mxgraph.aws4.cloud_directory;labelBackgroundColor=#ffffff;" parent="1" vertex="1">
          <mxGeometry x="568.5" y="74.5" width="78" height="78" as="geometry" />
        </mxCell>
        <mxCell id="UEzPUAAOIrF-is8g5C7q-113" value="Lambda" style="outlineConnect=0;fontColor=#232F3E;gradientColor=#F78E04;gradientDirection=north;fillColor=#D05C17;strokeColor=#ffffff;dashed=0;verticalLabelPosition=bottom;verticalAlign=top;align=center;html=1;fontSize=12;fontStyle=0;aspect=fixed;shape=mxgraph.aws4.resourceIcon;resIcon=mxgraph.aws4.lambda;labelBackgroundColor=#ffffff;spacingTop=3;" parent="1" vertex="1">
          <mxGeometry x="490.5" y="211.5" width="78" height="78" as="geometry" />
        </mxCell>
        <mxCell id="UEzPUAAOIrF-is8g5C7q-114" value="Amazon API&lt;br&gt;Gateway&lt;br&gt;" style="outlineConnect=0;fontColor=#232F3E;gradientColor=#945DF2;gradientDirection=north;fillColor=#5A30B5;strokeColor=#ffffff;dashed=0;verticalLabelPosition=bottom;verticalAlign=top;align=center;html=1;fontSize=12;fontStyle=0;aspect=fixed;shape=mxgraph.aws4.resourceIcon;resIcon=mxgraph.aws4.api_gateway;labelBackgroundColor=#ffffff;" parent="1" vertex="1">
          <mxGeometry x="369.5" y="337.5" width="78" height="78" as="geometry" />
        </mxCell>
        <mxCell id="UEzPUAAOIrF-is8g5C7q-115" value="Lambda&lt;br&gt;function" style="outlineConnect=0;fontColor=#232F3E;gradientColor=none;fillColor=#D05C17;strokeColor=none;dashed=0;verticalLabelPosition=bottom;verticalAlign=top;align=center;html=1;fontSize=12;fontStyle=0;aspect=fixed;pointerEvents=1;shape=mxgraph.aws4.lambda_function;labelBackgroundColor=#ffffff;" parent="1" vertex="1">
          <mxGeometry x="580.5" y="337.5" width="78" height="78" as="geometry" />
        </mxCell>
        <mxCell id="UEzPUAAOIrF-is8g5C7q-116" value="Amazon S3" style="outlineConnect=0;fontColor=#232F3E;gradientColor=#60A337;gradientDirection=north;fillColor=#277116;strokeColor=#ffffff;dashed=0;verticalLabelPosition=bottom;verticalAlign=top;align=center;html=1;fontSize=12;fontStyle=0;aspect=fixed;shape=mxgraph.aws4.resourceIcon;resIcon=mxgraph.aws4.s3;labelBackgroundColor=#ffffff;" parent="1" vertex="1">
          <mxGeometry x="800.5000000000002" y="14.5" width="78" height="78" as="geometry" />
        </mxCell>
        <mxCell id="UEzPUAAOIrF-is8g5C7q-117" value="AWS Glue" style="outlineConnect=0;fontColor=#232F3E;gradientColor=#945DF2;gradientDirection=north;fillColor=#5A30B5;strokeColor=#ffffff;dashed=0;verticalLabelPosition=bottom;verticalAlign=top;align=center;html=1;fontSize=12;fontStyle=0;aspect=fixed;shape=mxgraph.aws4.resourceIcon;resIcon=mxgraph.aws4.glue;labelBackgroundColor=#ffffff;" parent="1" vertex="1">
          <mxGeometry x="800.5000000000002" y="123.5" width="78" height="78" as="geometry" />
        </mxCell>
        <mxCell id="UEzPUAAOIrF-is8g5C7q-118" value="Amazon Athena" style="outlineConnect=0;fontColor=#232F3E;gradientColor=#945DF2;gradientDirection=north;fillColor=#5A30B5;strokeColor=#ffffff;dashed=0;verticalLabelPosition=bottom;verticalAlign=top;align=center;html=1;fontSize=12;fontStyle=0;aspect=fixed;shape=mxgraph.aws4.resourceIcon;resIcon=mxgraph.aws4.athena;labelBackgroundColor=#ffffff;" parent="1" vertex="1">
          <mxGeometry x="930.5" y="123.5" width="78" height="78" as="geometry" />
        </mxCell>
        <mxCell id="UEzPUAAOIrF-is8g5C7q-119" value="Amazon&lt;br&gt;DynamoDB&lt;br&gt;" style="outlineConnect=0;fontColor=#232F3E;gradientColor=#4D72F3;gradientDirection=north;fillColor=#3334B9;strokeColor=#ffffff;dashed=0;verticalLabelPosition=bottom;verticalAlign=top;align=center;html=1;fontSize=12;fontStyle=0;aspect=fixed;shape=mxgraph.aws4.resourceIcon;resIcon=mxgraph.aws4.dynamodb;labelBackgroundColor=#ffffff;spacingTop=5;" parent="1" vertex="1">
          <mxGeometry x="800.5000000000002" y="242.5" width="78" height="78" as="geometry" />
        </mxCell>
        <mxCell id="UEzPUAAOIrF-is8g5C7q-120" value="Amazon&lt;br&gt;ElasticSearch&lt;br&gt;Service&lt;br&gt;" style="outlineConnect=0;fontColor=#232F3E;gradientColor=#945DF2;gradientDirection=north;fillColor=#5A30B5;strokeColor=#ffffff;dashed=0;verticalLabelPosition=bottom;verticalAlign=top;align=center;html=1;fontSize=12;fontStyle=0;aspect=fixed;shape=mxgraph.aws4.resourceIcon;resIcon=mxgraph.aws4.elasticsearch_service;labelBackgroundColor=#ffffff;" parent="1" vertex="1">
          <mxGeometry x="800.5000000000002" y="376.5" width="78" height="78" as="geometry" />
        </mxCell>
        <mxCell id="UEzPUAAOIrF-is8g5C7q-121" value="Amazon&lt;br&gt;CloudWatch&lt;br&gt;" style="outlineConnect=0;fontColor=#232F3E;gradientColor=#F34482;gradientDirection=north;fillColor=#BC1356;strokeColor=#ffffff;dashed=0;verticalLabelPosition=bottom;verticalAlign=top;align=center;html=1;fontSize=12;fontStyle=0;aspect=fixed;shape=mxgraph.aws4.resourceIcon;resIcon=mxgraph.aws4.cloudwatch;labelBackgroundColor=#ffffff;" parent="1" vertex="1">
          <mxGeometry x="800.5000000000002" y="491.5" width="78" height="78" as="geometry" />
        </mxCell>
        <mxCell id="UEzPUAAOIrF-is8g5C7q-122" value="IAM Roles" style="outlineConnect=0;fontColor=#232F3E;gradientColor=none;fillColor=#C7131F;strokeColor=none;dashed=0;verticalLabelPosition=bottom;verticalAlign=top;align=center;html=1;fontSize=12;fontStyle=0;aspect=fixed;pointerEvents=1;shape=mxgraph.aws4.role;labelBackgroundColor=#ffffff;" parent="1" vertex="1">
          <mxGeometry x="800.5000000000002" y="631.5" width="78" height="44" as="geometry" />
        </mxCell>
        <mxCell id="UEzPUAAOIrF-is8g5C7q-123" value="Amazon&lt;br&gt;CloudWatch Logs&lt;br&gt;" style="outlineConnect=0;fontColor=#232F3E;gradientColor=none;gradientDirection=north;fillColor=#F34482;strokeColor=none;dashed=0;verticalLabelPosition=bottom;verticalAlign=top;align=center;html=1;fontSize=12;fontStyle=0;aspect=fixed;shape=mxgraph.aws4.cloudwatch;labelBackgroundColor=#ffffff;" parent="1" vertex="1">
          <mxGeometry x="800.5000000000002" y="701.5" width="78" height="78" as="geometry" />
        </mxCell>
      </root>
    </mxGraphModel>
  </diagram>
  <diagram id="5vYwhhdpFKR02t5_Syhm" name="Current">
    <mxGraphModel dx="2414" dy="2036" grid="1" gridSize="10" guides="1" tooltips="1" connect="1" arrows="1" fold="1" page="1" pageScale="1" pageWidth="850" pageHeight="1100" math="0" shadow="0">
      <root>
        <mxCell id="0" />
        <mxCell id="1" parent="0" />
        <mxCell id="DBzcQFIjdXgRBv4MFXPc-1" value="Device Link (uDTC)" style="outlineConnect=0;gradientColor=none;fontColor=#545B64;strokeColor=none;fillColor=#879196;dashed=0;verticalLabelPosition=bottom;verticalAlign=top;align=center;html=1;fontSize=12;fontStyle=0;aspect=fixed;shape=mxgraph.aws4.illustration_desktop;pointerEvents=1;labelBackgroundColor=#ffffff;" vertex="1" parent="1">
          <mxGeometry x="25" y="-60" width="100" height="91" as="geometry" />
        </mxCell>
        <mxCell id="DBzcQFIjdXgRBv4MFXPc-2" value="mySugr App" style="outlineConnect=0;gradientColor=none;fontColor=#545B64;strokeColor=none;fillColor=#879196;dashed=0;verticalLabelPosition=bottom;verticalAlign=top;align=center;html=1;fontSize=12;fontStyle=0;aspect=fixed;shape=mxgraph.aws4.illustration_notification;pointerEvents=1;labelBackgroundColor=#ffffff;" vertex="1" parent="1">
          <mxGeometry x="30" y="-200" width="100" height="81" as="geometry" />
        </mxCell>
        <mxCell id="e3I52H8qG0BYc5rMssQr-1" value="" style="sketch=0;points=[[0,0,0],[0.25,0,0],[0.5,0,0],[0.75,0,0],[1,0,0],[0,1,0],[0.25,1,0],[0.5,1,0],[0.75,1,0],[1,1,0],[0,0.25,0],[0,0.5,0],[0,0.75,0],[1,0.25,0],[1,0.5,0],[1,0.75,0]];outlineConnect=0;fontColor=#232F3E;gradientColor=#945DF2;gradientDirection=north;fillColor=#5A30B5;strokeColor=#ffffff;dashed=0;verticalLabelPosition=bottom;verticalAlign=top;align=center;html=1;fontSize=12;fontStyle=0;aspect=fixed;shape=mxgraph.aws4.resourceIcon;resIcon=mxgraph.aws4.route_53;" vertex="1" parent="1">
          <mxGeometry x="280" y="-270" width="78" height="78" as="geometry" />
        </mxCell>
        <mxCell id="t8bgUFFOvgX4_WCSl8NI-1" value="Amazon API&lt;br&gt;Gateway&lt;br&gt;" style="outlineConnect=0;fontColor=#232F3E;gradientColor=#945DF2;gradientDirection=north;fillColor=#5A30B5;strokeColor=#ffffff;dashed=0;verticalLabelPosition=bottom;verticalAlign=top;align=center;html=1;fontSize=12;fontStyle=0;aspect=fixed;shape=mxgraph.aws4.resourceIcon;resIcon=mxgraph.aws4.api_gateway;labelBackgroundColor=#ffffff;" vertex="1" parent="1">
          <mxGeometry x="440" y="-270" width="78" height="78" as="geometry" />
        </mxCell>
        <mxCell id="t8bgUFFOvgX4_WCSl8NI-5" value="External IAM" style="sketch=0;points=[[0,0,0],[0.25,0,0],[0.5,0,0],[0.75,0,0],[1,0,0],[0,1,0],[0.25,1,0],[0.5,1,0],[0.75,1,0],[1,1,0],[0,0.25,0],[0,0.5,0],[0,0.75,0],[1,0.25,0],[1,0.5,0],[1,0.75,0]];outlineConnect=0;fontColor=#232F3E;gradientColor=#F78E04;gradientDirection=north;fillColor=#D05C17;strokeColor=#ffffff;dashed=0;verticalLabelPosition=bottom;verticalAlign=top;align=center;html=1;fontSize=12;fontStyle=0;aspect=fixed;shape=mxgraph.aws4.resourceIcon;resIcon=mxgraph.aws4.auto_scaling2;" vertex="1" parent="1">
          <mxGeometry x="600" y="-398" width="78" height="78" as="geometry" />
        </mxCell>
        <mxCell id="t8bgUFFOvgX4_WCSl8NI-7" value="SaaS Public IAM" style="aspect=fixed;perimeter=ellipsePerimeter;html=1;align=center;shadow=0;dashed=0;fontColor=#4277BB;labelBackgroundColor=#ffffff;fontSize=12;spacingTop=3;image;image=img/lib/ibm/applications/saas_applications.svg;" vertex="1" parent="1">
          <mxGeometry x="960" y="-520" width="60" height="60" as="geometry" />
        </mxCell>
        <mxCell id="t8bgUFFOvgX4_WCSl8NI-8" value="RDCP backend" style="sketch=0;points=[[0,0,0],[0.25,0,0],[0.5,0,0],[0.75,0,0],[1,0,0],[0,1,0],[0.25,1,0],[0.5,1,0],[0.75,1,0],[1,1,0],[0,0.25,0],[0,0.5,0],[0,0.75,0],[1,0.25,0],[1,0.5,0],[1,0.75,0]];outlineConnect=0;fontColor=#232F3E;gradientColor=#F78E04;gradientDirection=north;fillColor=#D05C17;strokeColor=#ffffff;dashed=0;verticalLabelPosition=bottom;verticalAlign=top;align=center;html=1;fontSize=12;fontStyle=0;aspect=fixed;shape=mxgraph.aws4.resourceIcon;resIcon=mxgraph.aws4.auto_scaling2;" vertex="1" parent="1">
          <mxGeometry x="600" y="-240" width="78" height="78" as="geometry" />
        </mxCell>
        <mxCell id="t8bgUFFOvgX4_WCSl8NI-10" value="Health Data Store" style="sketch=0;points=[[0,0,0],[0.25,0,0],[0.5,0,0],[0.75,0,0],[1,0,0],[0,1,0],[0.25,1,0],[0.5,1,0],[0.75,1,0],[1,1,0],[0,0.25,0],[0,0.5,0],[0,0.75,0],[1,0.25,0],[1,0.5,0],[1,0.75,0]];outlineConnect=0;fontColor=#232F3E;gradientColor=#4D72F3;gradientDirection=north;fillColor=#3334B9;strokeColor=#ffffff;dashed=0;verticalLabelPosition=bottom;verticalAlign=top;align=center;html=1;fontSize=12;fontStyle=0;aspect=fixed;shape=mxgraph.aws4.resourceIcon;resIcon=mxgraph.aws4.rds;" vertex="1" parent="1">
          <mxGeometry x="600" y="-78" width="78" height="78" as="geometry" />
        </mxCell>
        <mxCell id="t8bgUFFOvgX4_WCSl8NI-11" value="Data Lake" style="sketch=0;points=[[0,0,0],[0.25,0,0],[0.5,0,0],[0.75,0,0],[1,0,0],[0,1,0],[0.25,1,0],[0.5,1,0],[0.75,1,0],[1,1,0],[0,0.25,0],[0,0.5,0],[0,0.75,0],[1,0.25,0],[1,0.5,0],[1,0.75,0]];outlineConnect=0;fontColor=#232F3E;gradientColor=#4D72F3;gradientDirection=north;fillColor=#3334B9;strokeColor=#ffffff;dashed=0;verticalLabelPosition=bottom;verticalAlign=top;align=center;html=1;fontSize=12;fontStyle=0;aspect=fixed;shape=mxgraph.aws4.resourceIcon;resIcon=mxgraph.aws4.redshift;" vertex="1" parent="1">
          <mxGeometry x="760" y="-78" width="78" height="78" as="geometry" />
        </mxCell>
        <mxCell id="t8bgUFFOvgX4_WCSl8NI-12" value="Bastion" style="sketch=0;points=[[0,0,0],[0.25,0,0],[0.5,0,0],[0.75,0,0],[1,0,0],[0,1,0],[0.25,1,0],[0.5,1,0],[0.75,1,0],[1,1,0],[0,0.25,0],[0,0.5,0],[0,0.75,0],[1,0.25,0],[1,0.5,0],[1,0.75,0]];outlineConnect=0;fontColor=#232F3E;gradientColor=#F78E04;gradientDirection=north;fillColor=#D05C17;strokeColor=#ffffff;dashed=0;verticalLabelPosition=bottom;verticalAlign=top;align=center;html=1;fontSize=12;fontStyle=0;aspect=fixed;shape=mxgraph.aws4.resourceIcon;resIcon=mxgraph.aws4.ec2;" vertex="1" parent="1">
          <mxGeometry x="362" y="150" width="78" height="78" as="geometry" />
        </mxCell>
        <mxCell id="o-0azQUgyU734Vb1xAgP-1" value="Active&lt;br&gt;Directory" style="outlineConnect=0;fontColor=#232F3E;gradientColor=#F54749;gradientDirection=north;fillColor=#C7131F;strokeColor=#ffffff;dashed=0;verticalLabelPosition=bottom;verticalAlign=top;align=center;html=1;fontSize=12;fontStyle=0;aspect=fixed;shape=mxgraph.aws4.resourceIcon;resIcon=mxgraph.aws4.cloud_directory;labelBackgroundColor=#ffffff;" vertex="1" parent="1">
          <mxGeometry x="40" y="150" width="78" height="78" as="geometry" />
        </mxCell>
        <mxCell id="o-0azQUgyU734Vb1xAgP-2" value="HCP Portal&lt;span style=&quot;color: rgba(0, 0, 0, 0); font-family: monospace; font-size: 0px; text-align: start;&quot;&gt;%3CmxGraphModel%3E%3Croot%3E%3CmxCell%20id%3D%220%22%2F%3E%3CmxCell%20id%3D%221%22%20parent%3D%220%22%2F%3E%3CmxCell%20id%3D%222%22%20value%3D%22Active%26lt%3Bbr%26gt%3BDirectory%22%20style%3D%22outlineConnect%3D0%3BfontColor%3D%23232F3E%3BgradientColor%3D%23F54749%3BgradientDirection%3Dnorth%3BfillColor%3D%23C7131F%3BstrokeColor%3D%23ffffff%3Bdashed%3D0%3BverticalLabelPosition%3Dbottom%3BverticalAlign%3Dtop%3Balign%3Dcenter%3Bhtml%3D1%3BfontSize%3D12%3BfontStyle%3D0%3Baspect%3Dfixed%3Bshape%3Dmxgraph.aws4.resourceIcon%3BresIcon%3Dmxgraph.aws4.cloud_directory%3BlabelBackgroundColor%3D%23ffffff%3B%22%20vertex%3D%221%22%20parent%3D%221%22%3E%3CmxGeometry%20x%3D%22568.5%22%20y%3D%2274.5%22%20width%3D%2278%22%20height%3D%2278%22%20as%3D%22geometry%22%2F%3E%3C%2FmxCell%3E%3C%2Froot%3E%3C%2FmxGraphModel%3E&lt;/span&gt;" style="sketch=0;pointerEvents=1;shadow=0;dashed=0;html=1;strokeColor=none;labelPosition=center;verticalLabelPosition=bottom;verticalAlign=top;align=center;fillColor=#505050;shape=mxgraph.mscae.intune.company_portal" vertex="1" parent="1">
          <mxGeometry x="30" y="-440" width="90" height="66.5" as="geometry" />
        </mxCell>
        <mxCell id="o-0azQUgyU734Vb1xAgP-3" value="Patient Portal" style="sketch=0;pointerEvents=1;shadow=0;dashed=0;html=1;strokeColor=none;labelPosition=center;verticalLabelPosition=bottom;verticalAlign=top;align=center;fillColor=#505050;shape=mxgraph.mscae.intune.company_portal" vertex="1" parent="1">
          <mxGeometry x="30" y="-320" width="90" height="68.5" as="geometry" />
        </mxCell>
        <mxCell id="o-0azQUgyU734Vb1xAgP-4" value="" style="edgeStyle=orthogonalEdgeStyle;html=1;endArrow=block;elbow=vertical;startArrow=none;endFill=1;strokeColor=#545B64;rounded=0;entryX=0;entryY=0.25;entryDx=0;entryDy=0;entryPerimeter=0;" edge="1" parent="1" source="o-0azQUgyU734Vb1xAgP-2" target="e3I52H8qG0BYc5rMssQr-1">
          <mxGeometry width="100" relative="1" as="geometry">
            <mxPoint x="130" y="-400" as="sourcePoint" />
            <mxPoint x="230" y="-400" as="targetPoint" />
            <Array as="points">
              <mxPoint x="220" y="-407" />
              <mxPoint x="220" y="-250" />
            </Array>
          </mxGeometry>
        </mxCell>
        <mxCell id="o-0azQUgyU734Vb1xAgP-5" value="" style="edgeStyle=orthogonalEdgeStyle;html=1;endArrow=block;elbow=vertical;startArrow=none;endFill=1;strokeColor=#545B64;rounded=0;entryX=0;entryY=0.5;entryDx=0;entryDy=0;entryPerimeter=0;" edge="1" parent="1" source="o-0azQUgyU734Vb1xAgP-3" target="e3I52H8qG0BYc5rMssQr-1">
          <mxGeometry width="100" relative="1" as="geometry">
            <mxPoint x="130" y="-349.99923076923073" as="sourcePoint" />
            <mxPoint x="280" y="-230" as="targetPoint" />
            <Array as="points">
              <mxPoint x="200" y="-286" />
              <mxPoint x="200" y="-230" />
              <mxPoint x="270" y="-230" />
            </Array>
          </mxGeometry>
        </mxCell>
        <mxCell id="o-0azQUgyU734Vb1xAgP-6" value="" style="edgeStyle=orthogonalEdgeStyle;html=1;endArrow=block;elbow=vertical;startArrow=none;endFill=1;strokeColor=#545B64;rounded=0;entryX=0;entryY=0.75;entryDx=0;entryDy=0;entryPerimeter=0;" edge="1" parent="1" source="DBzcQFIjdXgRBv4MFXPc-2" target="e3I52H8qG0BYc5rMssQr-1">
          <mxGeometry width="100" relative="1" as="geometry">
            <mxPoint x="140" y="-386.7692307692307" as="sourcePoint" />
            <mxPoint x="290" y="-211.00000000000023" as="targetPoint" />
          </mxGeometry>
        </mxCell>
        <mxCell id="o-0azQUgyU734Vb1xAgP-7" value="" style="edgeStyle=orthogonalEdgeStyle;html=1;endArrow=block;elbow=vertical;startArrow=none;endFill=1;strokeColor=#545B64;rounded=0;entryX=0;entryY=1;entryDx=0;entryDy=0;entryPerimeter=0;" edge="1" parent="1" source="DBzcQFIjdXgRBv4MFXPc-1" target="e3I52H8qG0BYc5rMssQr-1">
          <mxGeometry width="100" relative="1" as="geometry">
            <mxPoint x="150" y="-376.7692307692307" as="sourcePoint" />
            <mxPoint x="300" y="-201.00000000000023" as="targetPoint" />
            <Array as="points">
              <mxPoint x="220" y="-14" />
              <mxPoint x="220" y="-192" />
            </Array>
          </mxGeometry>
        </mxCell>
        <mxCell id="YbmZr2k0mrWkjAufAK2s-3" value="" style="edgeStyle=orthogonalEdgeStyle;html=1;endArrow=block;elbow=vertical;startArrow=none;endFill=1;strokeColor=#545B64;rounded=0;exitX=1;exitY=0.5;exitDx=0;exitDy=0;exitPerimeter=0;" edge="1" parent="1" source="e3I52H8qG0BYc5rMssQr-1" target="t8bgUFFOvgX4_WCSl8NI-1">
          <mxGeometry width="100" relative="1" as="geometry">
            <mxPoint x="590" y="-200" as="sourcePoint" />
            <mxPoint x="690" y="-200" as="targetPoint" />
          </mxGeometry>
        </mxCell>
        <mxCell id="YbmZr2k0mrWkjAufAK2s-5" value="" style="edgeStyle=orthogonalEdgeStyle;html=1;endArrow=block;elbow=vertical;startArrow=none;endFill=1;strokeColor=#545B64;rounded=0;entryX=0;entryY=0.5;entryDx=0;entryDy=0;" edge="1" parent="1" source="t8bgUFFOvgX4_WCSl8NI-1" target="t8bgUFFOvgX4_WCSl8NI-7">
          <mxGeometry width="100" relative="1" as="geometry">
            <mxPoint x="590" y="-200" as="sourcePoint" />
            <mxPoint x="690" y="-200" as="targetPoint" />
            <Array as="points">
              <mxPoint x="460" y="-490" />
            </Array>
          </mxGeometry>
        </mxCell>
        <mxCell id="YbmZr2k0mrWkjAufAK2s-6" value="" style="edgeStyle=orthogonalEdgeStyle;html=1;endArrow=block;elbow=vertical;startArrow=none;endFill=1;strokeColor=#545B64;rounded=0;entryX=0;entryY=0.5;entryDx=0;entryDy=0;entryPerimeter=0;" edge="1" parent="1" source="t8bgUFFOvgX4_WCSl8NI-1" target="t8bgUFFOvgX4_WCSl8NI-5">
          <mxGeometry width="100" relative="1" as="geometry">
            <mxPoint x="590" y="-200" as="sourcePoint" />
            <mxPoint x="690" y="-200" as="targetPoint" />
          </mxGeometry>
        </mxCell>
        <mxCell id="YbmZr2k0mrWkjAufAK2s-7" value="" style="edgeStyle=orthogonalEdgeStyle;html=1;endArrow=block;elbow=vertical;startArrow=none;endFill=1;strokeColor=#545B64;rounded=0;exitX=0.5;exitY=0;exitDx=0;exitDy=0;exitPerimeter=0;entryX=0;entryY=0.75;entryDx=0;entryDy=0;" edge="1" parent="1" source="t8bgUFFOvgX4_WCSl8NI-5" target="t8bgUFFOvgX4_WCSl8NI-7">
          <mxGeometry width="100" relative="1" as="geometry">
            <mxPoint x="590" y="-200" as="sourcePoint" />
            <mxPoint x="690" y="-200" as="targetPoint" />
            <Array as="points">
              <mxPoint x="639" y="-477" />
            </Array>
          </mxGeometry>
        </mxCell>
        <mxCell id="YbmZr2k0mrWkjAufAK2s-8" value="" style="edgeStyle=orthogonalEdgeStyle;html=1;endArrow=block;elbow=vertical;startArrow=none;endFill=1;strokeColor=#545B64;rounded=0;entryX=0;entryY=0.5;entryDx=0;entryDy=0;entryPerimeter=0;" edge="1" parent="1" target="t8bgUFFOvgX4_WCSl8NI-8">
          <mxGeometry width="100" relative="1" as="geometry">
            <mxPoint x="520" y="-200" as="sourcePoint" />
            <mxPoint x="580" y="-200" as="targetPoint" />
          </mxGeometry>
        </mxCell>
        <mxCell id="YbmZr2k0mrWkjAufAK2s-9" value="" style="edgeStyle=orthogonalEdgeStyle;html=1;endArrow=block;elbow=vertical;startArrow=none;endFill=1;strokeColor=#545B64;rounded=0;entryX=0.5;entryY=0;entryDx=0;entryDy=0;entryPerimeter=0;" edge="1" parent="1" target="t8bgUFFOvgX4_WCSl8NI-10">
          <mxGeometry width="100" relative="1" as="geometry">
            <mxPoint x="639" y="-140" as="sourcePoint" />
            <mxPoint x="690" y="-200" as="targetPoint" />
          </mxGeometry>
        </mxCell>
        <mxCell id="YbmZr2k0mrWkjAufAK2s-10" value="" style="edgeStyle=orthogonalEdgeStyle;html=1;endArrow=block;elbow=vertical;startArrow=none;endFill=1;strokeColor=#545B64;rounded=0;entryX=0;entryY=0.5;entryDx=0;entryDy=0;entryPerimeter=0;exitX=1;exitY=0.5;exitDx=0;exitDy=0;exitPerimeter=0;" edge="1" parent="1" source="t8bgUFFOvgX4_WCSl8NI-10" target="t8bgUFFOvgX4_WCSl8NI-11">
          <mxGeometry width="100" relative="1" as="geometry">
            <mxPoint x="590" y="-200" as="sourcePoint" />
            <mxPoint x="690" y="-200" as="targetPoint" />
          </mxGeometry>
        </mxCell>
        <mxCell id="YbmZr2k0mrWkjAufAK2s-12" value="" style="edgeStyle=orthogonalEdgeStyle;html=1;endArrow=block;elbow=vertical;startArrow=none;endFill=1;strokeColor=#545B64;rounded=0;exitX=1;exitY=0.5;exitDx=0;exitDy=0;exitPerimeter=0;" edge="1" parent="1" source="t8bgUFFOvgX4_WCSl8NI-12">
          <mxGeometry width="100" relative="1" as="geometry">
            <mxPoint x="590" y="-70" as="sourcePoint" />
            <mxPoint x="800" y="20" as="targetPoint" />
          </mxGeometry>
        </mxCell>
        <mxCell id="YbmZr2k0mrWkjAufAK2s-13" value="" style="edgeStyle=orthogonalEdgeStyle;html=1;endArrow=block;elbow=vertical;startArrow=none;endFill=1;strokeColor=#545B64;rounded=0;" edge="1" parent="1">
          <mxGeometry width="100" relative="1" as="geometry">
            <mxPoint x="590" y="-70" as="sourcePoint" />
            <mxPoint x="690" y="-70" as="targetPoint" />
          </mxGeometry>
        </mxCell>
        <mxCell id="YbmZr2k0mrWkjAufAK2s-14" value="" style="edgeStyle=orthogonalEdgeStyle;html=1;endArrow=block;elbow=vertical;startArrow=block;startFill=1;endFill=1;strokeColor=#545B64;rounded=0;" edge="1" parent="1">
          <mxGeometry width="100" relative="1" as="geometry">
            <mxPoint x="590" y="-70" as="sourcePoint" />
            <mxPoint x="690" y="-70" as="targetPoint" />
          </mxGeometry>
        </mxCell>
        <mxCell id="YbmZr2k0mrWkjAufAK2s-15" value="" style="edgeStyle=orthogonalEdgeStyle;html=1;endArrow=block;elbow=vertical;startArrow=block;startFill=1;endFill=1;strokeColor=#545B64;rounded=0;entryX=0;entryY=0.5;entryDx=0;entryDy=0;entryPerimeter=0;" edge="1" parent="1" source="o-0azQUgyU734Vb1xAgP-1" target="t8bgUFFOvgX4_WCSl8NI-12">
          <mxGeometry width="100" relative="1" as="geometry">
            <mxPoint x="590" y="-70" as="sourcePoint" />
            <mxPoint x="690" y="-70" as="targetPoint" />
          </mxGeometry>
        </mxCell>
        <mxCell id="5QcLVlPi4jlHwd02I3hR-1" value="" style="rounded=0;whiteSpace=wrap;html=1;fillColor=none;strokeColor=#FF8000;" vertex="1" parent="1">
          <mxGeometry x="248" y="-430" width="622" height="710" as="geometry" />
        </mxCell>
        <mxCell id="5QcLVlPi4jlHwd02I3hR-6" value="" style="rounded=0;whiteSpace=wrap;html=1;strokeColor=#66FFFF;fillColor=none;" vertex="1" parent="1">
          <mxGeometry x="-3" y="127" width="165" height="150" as="geometry" />
        </mxCell>
        <mxCell id="5QcLVlPi4jlHwd02I3hR-7" value="" style="rounded=0;whiteSpace=wrap;html=1;strokeColor=#FF3333;fillColor=none;" vertex="1" parent="1">
          <mxGeometry x="907.5" y="-565" width="165" height="150" as="geometry" />
        </mxCell>
      </root>
    </mxGraphModel>
  </diagram>
  <diagram name="MVP" id="FmbXlY-iW9aHfGpD5TU0">
    <mxGraphModel dx="2272" dy="1951" grid="1" gridSize="10" guides="1" tooltips="1" connect="1" arrows="1" fold="1" page="1" pageScale="1" pageWidth="850" pageHeight="1100" math="0" shadow="0">
      <root>
        <mxCell id="suJ5x9ivIqcmwVgZxbaL-0" />
        <mxCell id="suJ5x9ivIqcmwVgZxbaL-1" parent="suJ5x9ivIqcmwVgZxbaL-0" />
        <mxCell id="suJ5x9ivIqcmwVgZxbaL-2" value="Device Link (uDTC)" style="outlineConnect=0;gradientColor=none;fontColor=#545B64;strokeColor=none;fillColor=#879196;dashed=0;verticalLabelPosition=bottom;verticalAlign=top;align=center;html=1;fontSize=12;fontStyle=0;aspect=fixed;shape=mxgraph.aws4.illustration_desktop;pointerEvents=1;labelBackgroundColor=#ffffff;" vertex="1" parent="suJ5x9ivIqcmwVgZxbaL-1">
          <mxGeometry x="25" y="-60" width="100" height="91" as="geometry" />
        </mxCell>
        <mxCell id="suJ5x9ivIqcmwVgZxbaL-3" value="mySugr App" style="outlineConnect=0;gradientColor=none;fontColor=#545B64;strokeColor=none;fillColor=#879196;dashed=0;verticalLabelPosition=bottom;verticalAlign=top;align=center;html=1;fontSize=12;fontStyle=0;aspect=fixed;shape=mxgraph.aws4.illustration_notification;pointerEvents=1;labelBackgroundColor=#ffffff;" vertex="1" parent="suJ5x9ivIqcmwVgZxbaL-1">
          <mxGeometry x="30" y="-200" width="100" height="81" as="geometry" />
        </mxCell>
        <mxCell id="suJ5x9ivIqcmwVgZxbaL-4" value="" style="sketch=0;points=[[0,0,0],[0.25,0,0],[0.5,0,0],[0.75,0,0],[1,0,0],[0,1,0],[0.25,1,0],[0.5,1,0],[0.75,1,0],[1,1,0],[0,0.25,0],[0,0.5,0],[0,0.75,0],[1,0.25,0],[1,0.5,0],[1,0.75,0]];outlineConnect=0;fontColor=#232F3E;gradientColor=#945DF2;gradientDirection=north;fillColor=#5A30B5;strokeColor=#ffffff;dashed=0;verticalLabelPosition=bottom;verticalAlign=top;align=center;html=1;fontSize=12;fontStyle=0;aspect=fixed;shape=mxgraph.aws4.resourceIcon;resIcon=mxgraph.aws4.route_53;" vertex="1" parent="suJ5x9ivIqcmwVgZxbaL-1">
          <mxGeometry x="280" y="-270" width="78" height="78" as="geometry" />
        </mxCell>
        <mxCell id="suJ5x9ivIqcmwVgZxbaL-5" value="Amazon API&lt;br&gt;Gateway&lt;br&gt;" style="outlineConnect=0;fontColor=#232F3E;gradientColor=#945DF2;gradientDirection=north;fillColor=#5A30B5;strokeColor=#ffffff;dashed=0;verticalLabelPosition=bottom;verticalAlign=top;align=center;html=1;fontSize=12;fontStyle=0;aspect=fixed;shape=mxgraph.aws4.resourceIcon;resIcon=mxgraph.aws4.api_gateway;labelBackgroundColor=#ffffff;" vertex="1" parent="suJ5x9ivIqcmwVgZxbaL-1">
          <mxGeometry x="440" y="-270" width="78" height="78" as="geometry" />
        </mxCell>
        <mxCell id="suJ5x9ivIqcmwVgZxbaL-6" value="External IAM" style="sketch=0;points=[[0,0,0],[0.25,0,0],[0.5,0,0],[0.75,0,0],[1,0,0],[0,1,0],[0.25,1,0],[0.5,1,0],[0.75,1,0],[1,1,0],[0,0.25,0],[0,0.5,0],[0,0.75,0],[1,0.25,0],[1,0.5,0],[1,0.75,0]];outlineConnect=0;fontColor=#232F3E;gradientColor=#F78E04;gradientDirection=north;fillColor=#D05C17;strokeColor=#ffffff;dashed=0;verticalLabelPosition=bottom;verticalAlign=top;align=center;html=1;fontSize=12;fontStyle=0;aspect=fixed;shape=mxgraph.aws4.resourceIcon;resIcon=mxgraph.aws4.auto_scaling2;" vertex="1" parent="suJ5x9ivIqcmwVgZxbaL-1">
          <mxGeometry x="600" y="-398" width="78" height="78" as="geometry" />
        </mxCell>
        <mxCell id="suJ5x9ivIqcmwVgZxbaL-7" value="SaaS Public IAM" style="aspect=fixed;perimeter=ellipsePerimeter;html=1;align=center;shadow=0;dashed=0;fontColor=#4277BB;labelBackgroundColor=#ffffff;fontSize=12;spacingTop=3;image;image=img/lib/ibm/applications/saas_applications.svg;" vertex="1" parent="suJ5x9ivIqcmwVgZxbaL-1">
          <mxGeometry x="960" y="-520" width="60" height="60" as="geometry" />
        </mxCell>
        <mxCell id="suJ5x9ivIqcmwVgZxbaL-8" value="RDCP backend" style="sketch=0;points=[[0,0,0],[0.25,0,0],[0.5,0,0],[0.75,0,0],[1,0,0],[0,1,0],[0.25,1,0],[0.5,1,0],[0.75,1,0],[1,1,0],[0,0.25,0],[0,0.5,0],[0,0.75,0],[1,0.25,0],[1,0.5,0],[1,0.75,0]];outlineConnect=0;fontColor=#232F3E;gradientColor=#F78E04;gradientDirection=north;fillColor=#D05C17;strokeColor=#ffffff;dashed=0;verticalLabelPosition=bottom;verticalAlign=top;align=center;html=1;fontSize=12;fontStyle=0;aspect=fixed;shape=mxgraph.aws4.resourceIcon;resIcon=mxgraph.aws4.auto_scaling2;" vertex="1" parent="suJ5x9ivIqcmwVgZxbaL-1">
          <mxGeometry x="600" y="-240" width="78" height="78" as="geometry" />
        </mxCell>
        <mxCell id="suJ5x9ivIqcmwVgZxbaL-9" value="Health Data Store" style="sketch=0;points=[[0,0,0],[0.25,0,0],[0.5,0,0],[0.75,0,0],[1,0,0],[0,1,0],[0.25,1,0],[0.5,1,0],[0.75,1,0],[1,1,0],[0,0.25,0],[0,0.5,0],[0,0.75,0],[1,0.25,0],[1,0.5,0],[1,0.75,0]];outlineConnect=0;fontColor=#232F3E;gradientColor=#4D72F3;gradientDirection=north;fillColor=#3334B9;strokeColor=#ffffff;dashed=0;verticalLabelPosition=bottom;verticalAlign=top;align=center;html=1;fontSize=12;fontStyle=0;aspect=fixed;shape=mxgraph.aws4.resourceIcon;resIcon=mxgraph.aws4.rds;" vertex="1" parent="suJ5x9ivIqcmwVgZxbaL-1">
          <mxGeometry x="850" y="-78" width="78" height="78" as="geometry" />
        </mxCell>
        <mxCell id="suJ5x9ivIqcmwVgZxbaL-10" value="Data Lake" style="sketch=0;points=[[0,0,0],[0.25,0,0],[0.5,0,0],[0.75,0,0],[1,0,0],[0,1,0],[0.25,1,0],[0.5,1,0],[0.75,1,0],[1,1,0],[0,0.25,0],[0,0.5,0],[0,0.75,0],[1,0.25,0],[1,0.5,0],[1,0.75,0]];outlineConnect=0;fontColor=#232F3E;gradientColor=#4D72F3;gradientDirection=north;fillColor=#3334B9;strokeColor=#ffffff;dashed=0;verticalLabelPosition=bottom;verticalAlign=top;align=center;html=1;fontSize=12;fontStyle=0;aspect=fixed;shape=mxgraph.aws4.resourceIcon;resIcon=mxgraph.aws4.redshift;" vertex="1" parent="suJ5x9ivIqcmwVgZxbaL-1">
          <mxGeometry x="1010" y="-78" width="78" height="78" as="geometry" />
        </mxCell>
        <mxCell id="suJ5x9ivIqcmwVgZxbaL-11" value="Bastion" style="sketch=0;points=[[0,0,0],[0.25,0,0],[0.5,0,0],[0.75,0,0],[1,0,0],[0,1,0],[0.25,1,0],[0.5,1,0],[0.75,1,0],[1,1,0],[0,0.25,0],[0,0.5,0],[0,0.75,0],[1,0.25,0],[1,0.5,0],[1,0.75,0]];outlineConnect=0;fontColor=#232F3E;gradientColor=#F78E04;gradientDirection=north;fillColor=#D05C17;strokeColor=#ffffff;dashed=0;verticalLabelPosition=bottom;verticalAlign=top;align=center;html=1;fontSize=12;fontStyle=0;aspect=fixed;shape=mxgraph.aws4.resourceIcon;resIcon=mxgraph.aws4.ec2;" vertex="1" parent="suJ5x9ivIqcmwVgZxbaL-1">
          <mxGeometry x="362" y="150" width="78" height="78" as="geometry" />
        </mxCell>
        <mxCell id="suJ5x9ivIqcmwVgZxbaL-12" value="Active&lt;br&gt;Directory" style="outlineConnect=0;fontColor=#232F3E;gradientColor=#F54749;gradientDirection=north;fillColor=#C7131F;strokeColor=#ffffff;dashed=0;verticalLabelPosition=bottom;verticalAlign=top;align=center;html=1;fontSize=12;fontStyle=0;aspect=fixed;shape=mxgraph.aws4.resourceIcon;resIcon=mxgraph.aws4.cloud_directory;labelBackgroundColor=#ffffff;" vertex="1" parent="suJ5x9ivIqcmwVgZxbaL-1">
          <mxGeometry x="40" y="150" width="78" height="78" as="geometry" />
        </mxCell>
        <mxCell id="suJ5x9ivIqcmwVgZxbaL-13" value="HCP Portal&lt;span style=&quot;color: rgba(0, 0, 0, 0); font-family: monospace; font-size: 0px; text-align: start;&quot;&gt;%3CmxGraphModel%3E%3Croot%3E%3CmxCell%20id%3D%220%22%2F%3E%3CmxCell%20id%3D%221%22%20parent%3D%220%22%2F%3E%3CmxCell%20id%3D%222%22%20value%3D%22Active%26lt%3Bbr%26gt%3BDirectory%22%20style%3D%22outlineConnect%3D0%3BfontColor%3D%23232F3E%3BgradientColor%3D%23F54749%3BgradientDirection%3Dnorth%3BfillColor%3D%23C7131F%3BstrokeColor%3D%23ffffff%3Bdashed%3D0%3BverticalLabelPosition%3Dbottom%3BverticalAlign%3Dtop%3Balign%3Dcenter%3Bhtml%3D1%3BfontSize%3D12%3BfontStyle%3D0%3Baspect%3Dfixed%3Bshape%3Dmxgraph.aws4.resourceIcon%3BresIcon%3Dmxgraph.aws4.cloud_directory%3BlabelBackgroundColor%3D%23ffffff%3B%22%20vertex%3D%221%22%20parent%3D%221%22%3E%3CmxGeometry%20x%3D%22568.5%22%20y%3D%2274.5%22%20width%3D%2278%22%20height%3D%2278%22%20as%3D%22geometry%22%2F%3E%3C%2FmxCell%3E%3C%2Froot%3E%3C%2FmxGraphModel%3E&lt;/span&gt;" style="sketch=0;pointerEvents=1;shadow=0;dashed=0;html=1;strokeColor=none;labelPosition=center;verticalLabelPosition=bottom;verticalAlign=top;align=center;fillColor=#505050;shape=mxgraph.mscae.intune.company_portal" vertex="1" parent="suJ5x9ivIqcmwVgZxbaL-1">
          <mxGeometry x="30" y="-440" width="90" height="66.5" as="geometry" />
        </mxCell>
        <mxCell id="suJ5x9ivIqcmwVgZxbaL-14" value="Patient Portal" style="sketch=0;pointerEvents=1;shadow=0;dashed=0;html=1;strokeColor=none;labelPosition=center;verticalLabelPosition=bottom;verticalAlign=top;align=center;fillColor=#505050;shape=mxgraph.mscae.intune.company_portal" vertex="1" parent="suJ5x9ivIqcmwVgZxbaL-1">
          <mxGeometry x="30" y="-320" width="90" height="68.5" as="geometry" />
        </mxCell>
        <mxCell id="suJ5x9ivIqcmwVgZxbaL-15" value="" style="edgeStyle=orthogonalEdgeStyle;html=1;endArrow=block;elbow=vertical;startArrow=none;endFill=1;strokeColor=#545B64;rounded=0;entryX=0;entryY=0.25;entryDx=0;entryDy=0;entryPerimeter=0;" edge="1" parent="suJ5x9ivIqcmwVgZxbaL-1" source="suJ5x9ivIqcmwVgZxbaL-13" target="suJ5x9ivIqcmwVgZxbaL-4">
          <mxGeometry width="100" relative="1" as="geometry">
            <mxPoint x="130" y="-400" as="sourcePoint" />
            <mxPoint x="230" y="-400" as="targetPoint" />
            <Array as="points">
              <mxPoint x="220" y="-407" />
              <mxPoint x="220" y="-250" />
            </Array>
          </mxGeometry>
        </mxCell>
        <mxCell id="suJ5x9ivIqcmwVgZxbaL-16" value="" style="edgeStyle=orthogonalEdgeStyle;html=1;endArrow=block;elbow=vertical;startArrow=none;endFill=1;strokeColor=#545B64;rounded=0;entryX=0;entryY=0.5;entryDx=0;entryDy=0;entryPerimeter=0;" edge="1" parent="suJ5x9ivIqcmwVgZxbaL-1" source="suJ5x9ivIqcmwVgZxbaL-14" target="suJ5x9ivIqcmwVgZxbaL-4">
          <mxGeometry width="100" relative="1" as="geometry">
            <mxPoint x="130" y="-349.99923076923073" as="sourcePoint" />
            <mxPoint x="280" y="-230" as="targetPoint" />
            <Array as="points">
              <mxPoint x="200" y="-286" />
              <mxPoint x="200" y="-230" />
              <mxPoint x="270" y="-230" />
            </Array>
          </mxGeometry>
        </mxCell>
        <mxCell id="suJ5x9ivIqcmwVgZxbaL-17" value="" style="edgeStyle=orthogonalEdgeStyle;html=1;endArrow=block;elbow=vertical;startArrow=none;endFill=1;strokeColor=#545B64;rounded=0;entryX=0;entryY=0.75;entryDx=0;entryDy=0;entryPerimeter=0;" edge="1" parent="suJ5x9ivIqcmwVgZxbaL-1" source="suJ5x9ivIqcmwVgZxbaL-3" target="suJ5x9ivIqcmwVgZxbaL-4">
          <mxGeometry width="100" relative="1" as="geometry">
            <mxPoint x="140" y="-386.7692307692307" as="sourcePoint" />
            <mxPoint x="290" y="-211.00000000000023" as="targetPoint" />
          </mxGeometry>
        </mxCell>
        <mxCell id="suJ5x9ivIqcmwVgZxbaL-18" value="" style="edgeStyle=orthogonalEdgeStyle;html=1;endArrow=block;elbow=vertical;startArrow=none;endFill=1;strokeColor=#545B64;rounded=0;entryX=0;entryY=1;entryDx=0;entryDy=0;entryPerimeter=0;" edge="1" parent="suJ5x9ivIqcmwVgZxbaL-1" source="suJ5x9ivIqcmwVgZxbaL-2" target="suJ5x9ivIqcmwVgZxbaL-4">
          <mxGeometry width="100" relative="1" as="geometry">
            <mxPoint x="150" y="-376.7692307692307" as="sourcePoint" />
            <mxPoint x="300" y="-201.00000000000023" as="targetPoint" />
            <Array as="points">
              <mxPoint x="220" y="-14" />
              <mxPoint x="220" y="-192" />
            </Array>
          </mxGeometry>
        </mxCell>
        <mxCell id="suJ5x9ivIqcmwVgZxbaL-19" value="" style="edgeStyle=orthogonalEdgeStyle;html=1;endArrow=block;elbow=vertical;startArrow=none;endFill=1;strokeColor=#545B64;rounded=0;exitX=1;exitY=0.5;exitDx=0;exitDy=0;exitPerimeter=0;" edge="1" parent="suJ5x9ivIqcmwVgZxbaL-1" source="suJ5x9ivIqcmwVgZxbaL-4" target="suJ5x9ivIqcmwVgZxbaL-5">
          <mxGeometry width="100" relative="1" as="geometry">
            <mxPoint x="590" y="-200" as="sourcePoint" />
            <mxPoint x="690" y="-200" as="targetPoint" />
          </mxGeometry>
        </mxCell>
        <mxCell id="suJ5x9ivIqcmwVgZxbaL-20" value="" style="edgeStyle=orthogonalEdgeStyle;html=1;endArrow=block;elbow=vertical;startArrow=none;endFill=1;strokeColor=#545B64;rounded=0;entryX=0;entryY=0.5;entryDx=0;entryDy=0;" edge="1" parent="suJ5x9ivIqcmwVgZxbaL-1" source="suJ5x9ivIqcmwVgZxbaL-5" target="suJ5x9ivIqcmwVgZxbaL-7">
          <mxGeometry width="100" relative="1" as="geometry">
            <mxPoint x="590" y="-200" as="sourcePoint" />
            <mxPoint x="690" y="-200" as="targetPoint" />
            <Array as="points">
              <mxPoint x="460" y="-490" />
            </Array>
          </mxGeometry>
        </mxCell>
        <mxCell id="suJ5x9ivIqcmwVgZxbaL-21" value="" style="edgeStyle=orthogonalEdgeStyle;html=1;endArrow=block;elbow=vertical;startArrow=none;endFill=1;strokeColor=#545B64;rounded=0;entryX=0;entryY=0.5;entryDx=0;entryDy=0;entryPerimeter=0;" edge="1" parent="suJ5x9ivIqcmwVgZxbaL-1" source="suJ5x9ivIqcmwVgZxbaL-5" target="suJ5x9ivIqcmwVgZxbaL-6">
          <mxGeometry width="100" relative="1" as="geometry">
            <mxPoint x="590" y="-200" as="sourcePoint" />
            <mxPoint x="690" y="-200" as="targetPoint" />
          </mxGeometry>
        </mxCell>
        <mxCell id="suJ5x9ivIqcmwVgZxbaL-22" value="" style="edgeStyle=orthogonalEdgeStyle;html=1;endArrow=block;elbow=vertical;startArrow=none;endFill=1;strokeColor=#545B64;rounded=0;exitX=0.5;exitY=0;exitDx=0;exitDy=0;exitPerimeter=0;entryX=0;entryY=0.75;entryDx=0;entryDy=0;" edge="1" parent="suJ5x9ivIqcmwVgZxbaL-1" source="suJ5x9ivIqcmwVgZxbaL-6" target="suJ5x9ivIqcmwVgZxbaL-7">
          <mxGeometry width="100" relative="1" as="geometry">
            <mxPoint x="590" y="-200" as="sourcePoint" />
            <mxPoint x="690" y="-200" as="targetPoint" />
            <Array as="points">
              <mxPoint x="639" y="-477" />
            </Array>
          </mxGeometry>
        </mxCell>
        <mxCell id="suJ5x9ivIqcmwVgZxbaL-23" value="" style="edgeStyle=orthogonalEdgeStyle;html=1;endArrow=block;elbow=vertical;startArrow=none;endFill=1;strokeColor=#545B64;rounded=0;entryX=0;entryY=0.5;entryDx=0;entryDy=0;entryPerimeter=0;" edge="1" parent="suJ5x9ivIqcmwVgZxbaL-1" target="suJ5x9ivIqcmwVgZxbaL-8">
          <mxGeometry width="100" relative="1" as="geometry">
            <mxPoint x="520" y="-200" as="sourcePoint" />
            <mxPoint x="580" y="-200" as="targetPoint" />
          </mxGeometry>
        </mxCell>
        <mxCell id="suJ5x9ivIqcmwVgZxbaL-24" value="" style="edgeStyle=orthogonalEdgeStyle;html=1;endArrow=block;elbow=vertical;startArrow=none;endFill=1;strokeColor=#545B64;rounded=0;entryX=0.5;entryY=0;entryDx=0;entryDy=0;entryPerimeter=0;exitX=1;exitY=0.5;exitDx=0;exitDy=0;exitPerimeter=0;" edge="1" parent="suJ5x9ivIqcmwVgZxbaL-1" target="suJ5x9ivIqcmwVgZxbaL-9" source="suJ5x9ivIqcmwVgZxbaL-8">
          <mxGeometry width="100" relative="1" as="geometry">
            <mxPoint x="639" y="-140" as="sourcePoint" />
            <mxPoint x="690" y="-200" as="targetPoint" />
          </mxGeometry>
        </mxCell>
        <mxCell id="suJ5x9ivIqcmwVgZxbaL-25" value="" style="edgeStyle=orthogonalEdgeStyle;html=1;endArrow=block;elbow=vertical;startArrow=none;endFill=1;strokeColor=#545B64;rounded=0;entryX=0;entryY=0.5;entryDx=0;entryDy=0;entryPerimeter=0;exitX=1;exitY=0.5;exitDx=0;exitDy=0;exitPerimeter=0;" edge="1" parent="suJ5x9ivIqcmwVgZxbaL-1" source="suJ5x9ivIqcmwVgZxbaL-9" target="suJ5x9ivIqcmwVgZxbaL-10">
          <mxGeometry width="100" relative="1" as="geometry">
            <mxPoint x="840" y="-200" as="sourcePoint" />
            <mxPoint x="940" y="-200" as="targetPoint" />
          </mxGeometry>
        </mxCell>
        <mxCell id="suJ5x9ivIqcmwVgZxbaL-26" value="" style="edgeStyle=orthogonalEdgeStyle;html=1;endArrow=block;elbow=vertical;startArrow=none;endFill=1;strokeColor=#545B64;rounded=0;exitX=1;exitY=0.5;exitDx=0;exitDy=0;exitPerimeter=0;" edge="1" parent="suJ5x9ivIqcmwVgZxbaL-1" source="suJ5x9ivIqcmwVgZxbaL-11">
          <mxGeometry width="100" relative="1" as="geometry">
            <mxPoint x="590" y="-70" as="sourcePoint" />
            <mxPoint x="1050" y="30" as="targetPoint" />
            <Array as="points">
              <mxPoint x="1050" y="189" />
            </Array>
          </mxGeometry>
        </mxCell>
        <mxCell id="suJ5x9ivIqcmwVgZxbaL-29" value="" style="edgeStyle=orthogonalEdgeStyle;html=1;endArrow=block;elbow=vertical;startArrow=block;startFill=1;endFill=1;strokeColor=#545B64;rounded=0;entryX=0;entryY=0.5;entryDx=0;entryDy=0;entryPerimeter=0;" edge="1" parent="suJ5x9ivIqcmwVgZxbaL-1" source="suJ5x9ivIqcmwVgZxbaL-12" target="suJ5x9ivIqcmwVgZxbaL-11">
          <mxGeometry width="100" relative="1" as="geometry">
            <mxPoint x="590" y="-70" as="sourcePoint" />
            <mxPoint x="690" y="-70" as="targetPoint" />
          </mxGeometry>
        </mxCell>
        <mxCell id="suJ5x9ivIqcmwVgZxbaL-31" value="" style="rounded=0;whiteSpace=wrap;html=1;strokeColor=#66FFFF;fillColor=none;" vertex="1" parent="suJ5x9ivIqcmwVgZxbaL-1">
          <mxGeometry x="-3" y="127" width="165" height="150" as="geometry" />
        </mxCell>
        <mxCell id="suJ5x9ivIqcmwVgZxbaL-32" value="" style="rounded=0;whiteSpace=wrap;html=1;strokeColor=#FF3333;fillColor=none;" vertex="1" parent="suJ5x9ivIqcmwVgZxbaL-1">
          <mxGeometry x="907.5" y="-565" width="165" height="150" as="geometry" />
        </mxCell>
        <mxCell id="GsNP3Oq7BERpruCZvulE-0" value="Data Lake" style="sketch=0;points=[[0,0,0],[0.25,0,0],[0.5,0,0],[0.75,0,0],[1,0,0],[0,1,0],[0.25,1,0],[0.5,1,0],[0.75,1,0],[1,1,0],[0,0.25,0],[0,0.5,0],[0,0.75,0],[1,0.25,0],[1,0.5,0],[1,0.75,0]];outlineConnect=0;fontColor=#232F3E;gradientColor=#4D72F3;gradientDirection=north;fillColor=#3334B9;strokeColor=#ffffff;dashed=0;verticalLabelPosition=bottom;verticalAlign=top;align=center;html=1;fontSize=12;fontStyle=0;aspect=fixed;shape=mxgraph.aws4.resourceIcon;resIcon=mxgraph.aws4.redshift;" vertex="1" parent="suJ5x9ivIqcmwVgZxbaL-1">
          <mxGeometry x="1010" y="-78" width="78" height="78" as="geometry" />
        </mxCell>
        <mxCell id="Q_oKQz-WVsPTCE1uxuyS-0" value="" style="rounded=0;whiteSpace=wrap;html=1;fillColor=none;strokeColor=#FF8000;" vertex="1" parent="suJ5x9ivIqcmwVgZxbaL-1">
          <mxGeometry x="248" y="-432" width="462" height="710" as="geometry" />
        </mxCell>
        <mxCell id="Q_oKQz-WVsPTCE1uxuyS-1" value="" style="rounded=1;whiteSpace=wrap;html=1;strokeColor=#FF3333;fillColor=none;strokeWidth=3;" vertex="1" parent="suJ5x9ivIqcmwVgZxbaL-1">
          <mxGeometry x="790" y="-120" width="370" height="180" as="geometry" />
        </mxCell>
      </root>
    </mxGraphModel>
  </diagram>
  <diagram name="Performance" id="py7MDdnxZJt7CagGyQ7V">
    <mxGraphModel dx="2414" dy="2036" grid="1" gridSize="10" guides="1" tooltips="1" connect="1" arrows="1" fold="1" page="1" pageScale="1" pageWidth="850" pageHeight="1100" math="0" shadow="0">
      <root>
        <mxCell id="7fyzseE-kv-z3HTarfVp-0" />
        <mxCell id="7fyzseE-kv-z3HTarfVp-1" parent="7fyzseE-kv-z3HTarfVp-0" />
        <mxCell id="7fyzseE-kv-z3HTarfVp-2" value="Device Link (uDTC)" style="outlineConnect=0;gradientColor=none;fontColor=#545B64;strokeColor=none;fillColor=#879196;dashed=0;verticalLabelPosition=bottom;verticalAlign=top;align=center;html=1;fontSize=12;fontStyle=1;aspect=fixed;shape=mxgraph.aws4.illustration_desktop;pointerEvents=1;labelBackgroundColor=#ffffff;" vertex="1" parent="7fyzseE-kv-z3HTarfVp-1">
          <mxGeometry x="25" y="-60" width="100" height="91" as="geometry" />
        </mxCell>
        <mxCell id="7fyzseE-kv-z3HTarfVp-3" value="mySugr App" style="outlineConnect=0;gradientColor=none;fontColor=#545B64;strokeColor=none;fillColor=#879196;dashed=0;verticalLabelPosition=bottom;verticalAlign=top;align=center;html=1;fontSize=12;fontStyle=1;aspect=fixed;shape=mxgraph.aws4.illustration_notification;pointerEvents=1;labelBackgroundColor=#ffffff;" vertex="1" parent="7fyzseE-kv-z3HTarfVp-1">
          <mxGeometry x="30" y="-200" width="100" height="81" as="geometry" />
        </mxCell>
        <mxCell id="7fyzseE-kv-z3HTarfVp-4" value="" style="sketch=0;points=[[0,0,0],[0.25,0,0],[0.5,0,0],[0.75,0,0],[1,0,0],[0,1,0],[0.25,1,0],[0.5,1,0],[0.75,1,0],[1,1,0],[0,0.25,0],[0,0.5,0],[0,0.75,0],[1,0.25,0],[1,0.5,0],[1,0.75,0]];outlineConnect=0;fontColor=#232F3E;gradientColor=#945DF2;gradientDirection=north;fillColor=#5A30B5;strokeColor=#ffffff;dashed=0;verticalLabelPosition=bottom;verticalAlign=top;align=center;html=1;fontSize=12;fontStyle=0;aspect=fixed;shape=mxgraph.aws4.resourceIcon;resIcon=mxgraph.aws4.route_53;" vertex="1" parent="7fyzseE-kv-z3HTarfVp-1">
          <mxGeometry x="280" y="-270" width="78" height="78" as="geometry" />
        </mxCell>
        <mxCell id="7fyzseE-kv-z3HTarfVp-5" value="Amazon API&lt;br&gt;Gateway&lt;br&gt;" style="outlineConnect=0;fontColor=#232F3E;gradientColor=#945DF2;gradientDirection=north;fillColor=#5A30B5;strokeColor=#ffffff;dashed=0;verticalLabelPosition=bottom;verticalAlign=top;align=center;html=1;fontSize=12;fontStyle=0;aspect=fixed;shape=mxgraph.aws4.resourceIcon;resIcon=mxgraph.aws4.api_gateway;labelBackgroundColor=#ffffff;" vertex="1" parent="7fyzseE-kv-z3HTarfVp-1">
          <mxGeometry x="425" y="-270" width="78" height="78" as="geometry" />
        </mxCell>
        <mxCell id="7fyzseE-kv-z3HTarfVp-6" value="External IAM" style="sketch=0;points=[[0,0,0],[0.25,0,0],[0.5,0,0],[0.75,0,0],[1,0,0],[0,1,0],[0.25,1,0],[0.5,1,0],[0.75,1,0],[1,1,0],[0,0.25,0],[0,0.5,0],[0,0.75,0],[1,0.25,0],[1,0.5,0],[1,0.75,0]];outlineConnect=0;fontColor=#232F3E;gradientColor=#F78E04;gradientDirection=north;fillColor=#D05C17;strokeColor=#ffffff;dashed=0;verticalLabelPosition=bottom;verticalAlign=top;align=center;html=1;fontSize=12;fontStyle=0;aspect=fixed;shape=mxgraph.aws4.resourceIcon;resIcon=mxgraph.aws4.auto_scaling2;" vertex="1" parent="7fyzseE-kv-z3HTarfVp-1">
          <mxGeometry x="600" y="-398" width="78" height="78" as="geometry" />
        </mxCell>
        <mxCell id="7fyzseE-kv-z3HTarfVp-7" value="SaaS Public IAM" style="aspect=fixed;perimeter=ellipsePerimeter;html=1;align=center;shadow=0;dashed=0;fontColor=#4277BB;labelBackgroundColor=#ffffff;fontSize=12;spacingTop=3;image;image=img/lib/ibm/applications/saas_applications.svg;" vertex="1" parent="7fyzseE-kv-z3HTarfVp-1">
          <mxGeometry x="960" y="-520" width="60" height="60" as="geometry" />
        </mxCell>
        <mxCell id="7fyzseE-kv-z3HTarfVp-8" value="RDCP backend" style="sketch=0;points=[[0,0,0],[0.25,0,0],[0.5,0,0],[0.75,0,0],[1,0,0],[0,1,0],[0.25,1,0],[0.5,1,0],[0.75,1,0],[1,1,0],[0,0.25,0],[0,0.5,0],[0,0.75,0],[1,0.25,0],[1,0.5,0],[1,0.75,0]];outlineConnect=0;fontColor=#232F3E;gradientColor=#F78E04;gradientDirection=north;fillColor=#D05C17;strokeColor=#ffffff;dashed=0;verticalLabelPosition=bottom;verticalAlign=top;align=center;html=1;fontSize=12;fontStyle=0;aspect=fixed;shape=mxgraph.aws4.resourceIcon;resIcon=mxgraph.aws4.auto_scaling2;" vertex="1" parent="7fyzseE-kv-z3HTarfVp-1">
          <mxGeometry x="800" y="-240" width="78" height="78" as="geometry" />
        </mxCell>
        <mxCell id="7fyzseE-kv-z3HTarfVp-9" value="Health Data Store" style="sketch=0;points=[[0,0,0],[0.25,0,0],[0.5,0,0],[0.75,0,0],[1,0,0],[0,1,0],[0.25,1,0],[0.5,1,0],[0.75,1,0],[1,1,0],[0,0.25,0],[0,0.5,0],[0,0.75,0],[1,0.25,0],[1,0.5,0],[1,0.75,0]];outlineConnect=0;fontColor=#232F3E;gradientColor=#4D72F3;gradientDirection=north;fillColor=#3334B9;strokeColor=#ffffff;dashed=0;verticalLabelPosition=bottom;verticalAlign=top;align=center;html=1;fontSize=12;fontStyle=0;aspect=fixed;shape=mxgraph.aws4.resourceIcon;resIcon=mxgraph.aws4.rds;" vertex="1" parent="7fyzseE-kv-z3HTarfVp-1">
          <mxGeometry x="850" y="-78" width="78" height="78" as="geometry" />
        </mxCell>
        <mxCell id="7fyzseE-kv-z3HTarfVp-10" value="Data Lake" style="sketch=0;points=[[0,0,0],[0.25,0,0],[0.5,0,0],[0.75,0,0],[1,0,0],[0,1,0],[0.25,1,0],[0.5,1,0],[0.75,1,0],[1,1,0],[0,0.25,0],[0,0.5,0],[0,0.75,0],[1,0.25,0],[1,0.5,0],[1,0.75,0]];outlineConnect=0;fontColor=#232F3E;gradientColor=#4D72F3;gradientDirection=north;fillColor=#3334B9;strokeColor=#ffffff;dashed=0;verticalLabelPosition=bottom;verticalAlign=top;align=center;html=1;fontSize=12;fontStyle=0;aspect=fixed;shape=mxgraph.aws4.resourceIcon;resIcon=mxgraph.aws4.redshift;" vertex="1" parent="7fyzseE-kv-z3HTarfVp-1">
          <mxGeometry x="1010" y="-78" width="78" height="78" as="geometry" />
        </mxCell>
        <mxCell id="7fyzseE-kv-z3HTarfVp-11" value="Bastion" style="sketch=0;points=[[0,0,0],[0.25,0,0],[0.5,0,0],[0.75,0,0],[1,0,0],[0,1,0],[0.25,1,0],[0.5,1,0],[0.75,1,0],[1,1,0],[0,0.25,0],[0,0.5,0],[0,0.75,0],[1,0.25,0],[1,0.5,0],[1,0.75,0]];outlineConnect=0;fontColor=#232F3E;gradientColor=#F78E04;gradientDirection=north;fillColor=#D05C17;strokeColor=#ffffff;dashed=0;verticalLabelPosition=bottom;verticalAlign=top;align=center;html=1;fontSize=12;fontStyle=0;aspect=fixed;shape=mxgraph.aws4.resourceIcon;resIcon=mxgraph.aws4.ec2;" vertex="1" parent="7fyzseE-kv-z3HTarfVp-1">
          <mxGeometry x="362" y="150" width="78" height="78" as="geometry" />
        </mxCell>
        <mxCell id="7fyzseE-kv-z3HTarfVp-12" value="Active&lt;br&gt;Directory" style="outlineConnect=0;fontColor=#232F3E;gradientColor=#F54749;gradientDirection=north;fillColor=#C7131F;strokeColor=#ffffff;dashed=0;verticalLabelPosition=bottom;verticalAlign=top;align=center;html=1;fontSize=12;fontStyle=0;aspect=fixed;shape=mxgraph.aws4.resourceIcon;resIcon=mxgraph.aws4.cloud_directory;labelBackgroundColor=#ffffff;" vertex="1" parent="7fyzseE-kv-z3HTarfVp-1">
          <mxGeometry x="40" y="150" width="78" height="78" as="geometry" />
        </mxCell>
        <mxCell id="7fyzseE-kv-z3HTarfVp-13" value="HCP Portal&lt;span style=&quot;color: rgba(0, 0, 0, 0); font-family: monospace; font-size: 0px; text-align: start;&quot;&gt;%3CmxGraphModel%3E%3Croot%3E%3CmxCell%20id%3D%220%22%2F%3E%3CmxCell%20id%3D%221%22%20parent%3D%220%22%2F%3E%3CmxCell%20id%3D%222%22%20value%3D%22Active%26lt%3Bbr%26gt%3BDirectory%22%20style%3D%22outlineConnect%3D0%3BfontColor%3D%23232F3E%3BgradientColor%3D%23F54749%3BgradientDirection%3Dnorth%3BfillColor%3D%23C7131F%3BstrokeColor%3D%23ffffff%3Bdashed%3D0%3BverticalLabelPosition%3Dbottom%3BverticalAlign%3Dtop%3Balign%3Dcenter%3Bhtml%3D1%3BfontSize%3D12%3BfontStyle%3D0%3Baspect%3Dfixed%3Bshape%3Dmxgraph.aws4.resourceIcon%3BresIcon%3Dmxgraph.aws4.cloud_directory%3BlabelBackgroundColor%3D%23ffffff%3B%22%20vertex%3D%221%22%20parent%3D%221%22%3E%3CmxGeometry%20x%3D%22568.5%22%20y%3D%2274.5%22%20width%3D%2278%22%20height%3D%2278%22%20as%3D%22geometry%22%2F%3E%3C%2FmxCell%3E%3C%2Froot%3E%3C%2FmxGraphModel%3E&lt;/span&gt;" style="sketch=0;pointerEvents=1;shadow=0;dashed=0;html=1;strokeColor=none;labelPosition=center;verticalLabelPosition=bottom;verticalAlign=top;align=center;fillColor=#505050;shape=mxgraph.mscae.intune.company_portal;fontStyle=1" vertex="1" parent="7fyzseE-kv-z3HTarfVp-1">
          <mxGeometry x="30" y="-440" width="90" height="66.5" as="geometry" />
        </mxCell>
        <mxCell id="7fyzseE-kv-z3HTarfVp-14" value="Patient Portal" style="sketch=0;pointerEvents=1;shadow=0;dashed=0;html=1;strokeColor=none;labelPosition=center;verticalLabelPosition=bottom;verticalAlign=top;align=center;fillColor=#505050;shape=mxgraph.mscae.intune.company_portal;fontStyle=1" vertex="1" parent="7fyzseE-kv-z3HTarfVp-1">
          <mxGeometry x="30" y="-320" width="90" height="68.5" as="geometry" />
        </mxCell>
        <mxCell id="7fyzseE-kv-z3HTarfVp-15" value="" style="edgeStyle=orthogonalEdgeStyle;html=1;endArrow=block;elbow=vertical;startArrow=none;endFill=1;strokeColor=#545B64;rounded=0;entryX=0;entryY=0.25;entryDx=0;entryDy=0;entryPerimeter=0;" edge="1" parent="7fyzseE-kv-z3HTarfVp-1" source="7fyzseE-kv-z3HTarfVp-13" target="7fyzseE-kv-z3HTarfVp-4">
          <mxGeometry width="100" relative="1" as="geometry">
            <mxPoint x="130" y="-400" as="sourcePoint" />
            <mxPoint x="230" y="-400" as="targetPoint" />
            <Array as="points">
              <mxPoint x="220" y="-407" />
              <mxPoint x="220" y="-250" />
            </Array>
          </mxGeometry>
        </mxCell>
        <mxCell id="7fyzseE-kv-z3HTarfVp-16" value="" style="edgeStyle=orthogonalEdgeStyle;html=1;endArrow=block;elbow=vertical;startArrow=none;endFill=1;strokeColor=#545B64;rounded=0;entryX=0;entryY=0.5;entryDx=0;entryDy=0;entryPerimeter=0;" edge="1" parent="7fyzseE-kv-z3HTarfVp-1" source="7fyzseE-kv-z3HTarfVp-14" target="7fyzseE-kv-z3HTarfVp-4">
          <mxGeometry width="100" relative="1" as="geometry">
            <mxPoint x="130" y="-349.99923076923073" as="sourcePoint" />
            <mxPoint x="280" y="-230" as="targetPoint" />
            <Array as="points">
              <mxPoint x="200" y="-286" />
              <mxPoint x="200" y="-230" />
              <mxPoint x="270" y="-230" />
            </Array>
          </mxGeometry>
        </mxCell>
        <mxCell id="7fyzseE-kv-z3HTarfVp-17" value="" style="edgeStyle=orthogonalEdgeStyle;html=1;endArrow=block;elbow=vertical;startArrow=none;endFill=1;strokeColor=#545B64;rounded=0;entryX=0;entryY=0.75;entryDx=0;entryDy=0;entryPerimeter=0;" edge="1" parent="7fyzseE-kv-z3HTarfVp-1" source="7fyzseE-kv-z3HTarfVp-3" target="7fyzseE-kv-z3HTarfVp-4">
          <mxGeometry width="100" relative="1" as="geometry">
            <mxPoint x="140" y="-386.7692307692307" as="sourcePoint" />
            <mxPoint x="290" y="-211.00000000000023" as="targetPoint" />
          </mxGeometry>
        </mxCell>
        <mxCell id="7fyzseE-kv-z3HTarfVp-18" value="" style="edgeStyle=orthogonalEdgeStyle;html=1;endArrow=block;elbow=vertical;startArrow=none;endFill=1;strokeColor=#545B64;rounded=0;entryX=0;entryY=1;entryDx=0;entryDy=0;entryPerimeter=0;" edge="1" parent="7fyzseE-kv-z3HTarfVp-1" source="7fyzseE-kv-z3HTarfVp-2" target="7fyzseE-kv-z3HTarfVp-4">
          <mxGeometry width="100" relative="1" as="geometry">
            <mxPoint x="150" y="-376.7692307692307" as="sourcePoint" />
            <mxPoint x="300" y="-201.00000000000023" as="targetPoint" />
            <Array as="points">
              <mxPoint x="220" y="-14" />
              <mxPoint x="220" y="-192" />
            </Array>
          </mxGeometry>
        </mxCell>
        <mxCell id="7fyzseE-kv-z3HTarfVp-19" value="" style="edgeStyle=orthogonalEdgeStyle;html=1;endArrow=block;elbow=vertical;startArrow=none;endFill=1;strokeColor=#545B64;rounded=0;exitX=1;exitY=0.5;exitDx=0;exitDy=0;exitPerimeter=0;" edge="1" parent="7fyzseE-kv-z3HTarfVp-1" source="7fyzseE-kv-z3HTarfVp-4" target="7fyzseE-kv-z3HTarfVp-5">
          <mxGeometry width="100" relative="1" as="geometry">
            <mxPoint x="590" y="-200" as="sourcePoint" />
            <mxPoint x="690" y="-200" as="targetPoint" />
          </mxGeometry>
        </mxCell>
        <mxCell id="7fyzseE-kv-z3HTarfVp-20" value="" style="edgeStyle=orthogonalEdgeStyle;html=1;endArrow=block;elbow=vertical;startArrow=none;endFill=1;strokeColor=#545B64;rounded=0;entryX=0;entryY=0.5;entryDx=0;entryDy=0;" edge="1" parent="7fyzseE-kv-z3HTarfVp-1" source="7fyzseE-kv-z3HTarfVp-5" target="7fyzseE-kv-z3HTarfVp-7">
          <mxGeometry width="100" relative="1" as="geometry">
            <mxPoint x="590" y="-200" as="sourcePoint" />
            <mxPoint x="690" y="-200" as="targetPoint" />
            <Array as="points">
              <mxPoint x="460" y="-490" />
            </Array>
          </mxGeometry>
        </mxCell>
        <mxCell id="7fyzseE-kv-z3HTarfVp-21" value="" style="edgeStyle=orthogonalEdgeStyle;html=1;endArrow=block;elbow=vertical;startArrow=none;endFill=1;strokeColor=#545B64;rounded=0;entryX=0;entryY=0.5;entryDx=0;entryDy=0;entryPerimeter=0;" edge="1" parent="7fyzseE-kv-z3HTarfVp-1" source="7fyzseE-kv-z3HTarfVp-5" target="7fyzseE-kv-z3HTarfVp-6">
          <mxGeometry width="100" relative="1" as="geometry">
            <mxPoint x="590" y="-200" as="sourcePoint" />
            <mxPoint x="690" y="-200" as="targetPoint" />
          </mxGeometry>
        </mxCell>
        <mxCell id="7fyzseE-kv-z3HTarfVp-22" value="" style="edgeStyle=orthogonalEdgeStyle;html=1;endArrow=block;elbow=vertical;startArrow=none;endFill=1;strokeColor=#545B64;rounded=0;exitX=0.5;exitY=0;exitDx=0;exitDy=0;exitPerimeter=0;entryX=0;entryY=0.75;entryDx=0;entryDy=0;" edge="1" parent="7fyzseE-kv-z3HTarfVp-1" source="7fyzseE-kv-z3HTarfVp-6" target="7fyzseE-kv-z3HTarfVp-7">
          <mxGeometry width="100" relative="1" as="geometry">
            <mxPoint x="590" y="-200" as="sourcePoint" />
            <mxPoint x="690" y="-200" as="targetPoint" />
            <Array as="points">
              <mxPoint x="639" y="-477" />
            </Array>
          </mxGeometry>
        </mxCell>
        <mxCell id="7fyzseE-kv-z3HTarfVp-23" value="" style="edgeStyle=orthogonalEdgeStyle;html=1;endArrow=block;elbow=vertical;startArrow=none;endFill=1;strokeColor=#545B64;rounded=0;entryX=0;entryY=0.5;entryDx=0;entryDy=0;entryPerimeter=0;" edge="1" parent="7fyzseE-kv-z3HTarfVp-1" target="7fyzseE-kv-z3HTarfVp-8" source="7fyzseE-kv-z3HTarfVp-5">
          <mxGeometry width="100" relative="1" as="geometry">
            <mxPoint x="520" y="-200" as="sourcePoint" />
            <mxPoint x="580" y="-200" as="targetPoint" />
            <Array as="points">
              <mxPoint x="651" y="-200" />
            </Array>
          </mxGeometry>
        </mxCell>
        <mxCell id="7fyzseE-kv-z3HTarfVp-24" value="" style="edgeStyle=orthogonalEdgeStyle;html=1;endArrow=block;elbow=vertical;startArrow=none;endFill=1;strokeColor=#545B64;rounded=0;entryX=0.5;entryY=0;entryDx=0;entryDy=0;entryPerimeter=0;exitX=1;exitY=0.5;exitDx=0;exitDy=0;exitPerimeter=0;" edge="1" parent="7fyzseE-kv-z3HTarfVp-1" source="7fyzseE-kv-z3HTarfVp-8" target="7fyzseE-kv-z3HTarfVp-9">
          <mxGeometry width="100" relative="1" as="geometry">
            <mxPoint x="639" y="-140" as="sourcePoint" />
            <mxPoint x="690" y="-200" as="targetPoint" />
          </mxGeometry>
        </mxCell>
        <mxCell id="7fyzseE-kv-z3HTarfVp-25" value="" style="edgeStyle=orthogonalEdgeStyle;html=1;endArrow=block;elbow=vertical;startArrow=none;endFill=1;strokeColor=#545B64;rounded=0;entryX=0;entryY=0.5;entryDx=0;entryDy=0;entryPerimeter=0;exitX=1;exitY=0.5;exitDx=0;exitDy=0;exitPerimeter=0;" edge="1" parent="7fyzseE-kv-z3HTarfVp-1" source="7fyzseE-kv-z3HTarfVp-9" target="7fyzseE-kv-z3HTarfVp-10">
          <mxGeometry width="100" relative="1" as="geometry">
            <mxPoint x="840" y="-200" as="sourcePoint" />
            <mxPoint x="940" y="-200" as="targetPoint" />
          </mxGeometry>
        </mxCell>
        <mxCell id="7fyzseE-kv-z3HTarfVp-26" value="" style="edgeStyle=orthogonalEdgeStyle;html=1;endArrow=block;elbow=vertical;startArrow=none;endFill=1;strokeColor=#545B64;rounded=0;exitX=1;exitY=0.5;exitDx=0;exitDy=0;exitPerimeter=0;" edge="1" parent="7fyzseE-kv-z3HTarfVp-1" source="7fyzseE-kv-z3HTarfVp-11">
          <mxGeometry width="100" relative="1" as="geometry">
            <mxPoint x="590" y="-70" as="sourcePoint" />
            <mxPoint x="1050" y="30" as="targetPoint" />
            <Array as="points">
              <mxPoint x="1050" y="189" />
            </Array>
          </mxGeometry>
        </mxCell>
        <mxCell id="7fyzseE-kv-z3HTarfVp-27" value="" style="edgeStyle=orthogonalEdgeStyle;html=1;endArrow=block;elbow=vertical;startArrow=block;startFill=1;endFill=1;strokeColor=#545B64;rounded=0;entryX=0;entryY=0.5;entryDx=0;entryDy=0;entryPerimeter=0;" edge="1" parent="7fyzseE-kv-z3HTarfVp-1" source="7fyzseE-kv-z3HTarfVp-12" target="7fyzseE-kv-z3HTarfVp-11">
          <mxGeometry width="100" relative="1" as="geometry">
            <mxPoint x="590" y="-70" as="sourcePoint" />
            <mxPoint x="690" y="-70" as="targetPoint" />
          </mxGeometry>
        </mxCell>
        <mxCell id="7fyzseE-kv-z3HTarfVp-28" value="" style="rounded=0;whiteSpace=wrap;html=1;strokeColor=#0000FF;fillColor=none;strokeWidth=3;" vertex="1" parent="7fyzseE-kv-z3HTarfVp-1">
          <mxGeometry x="-3" y="110" width="165" height="167" as="geometry" />
        </mxCell>
        <mxCell id="7fyzseE-kv-z3HTarfVp-29" value="" style="rounded=0;whiteSpace=wrap;html=1;strokeColor=#4C0099;fillColor=none;strokeWidth=3;" vertex="1" parent="7fyzseE-kv-z3HTarfVp-1">
          <mxGeometry x="907.5" y="-560" width="165" height="145" as="geometry" />
        </mxCell>
        <mxCell id="7fyzseE-kv-z3HTarfVp-30" value="Data Lake" style="sketch=0;points=[[0,0,0],[0.25,0,0],[0.5,0,0],[0.75,0,0],[1,0,0],[0,1,0],[0.25,1,0],[0.5,1,0],[0.75,1,0],[1,1,0],[0,0.25,0],[0,0.5,0],[0,0.75,0],[1,0.25,0],[1,0.5,0],[1,0.75,0]];outlineConnect=0;fontColor=#232F3E;gradientColor=#4D72F3;gradientDirection=north;fillColor=#3334B9;strokeColor=#ffffff;dashed=0;verticalLabelPosition=bottom;verticalAlign=top;align=center;html=1;fontSize=12;fontStyle=0;aspect=fixed;shape=mxgraph.aws4.resourceIcon;resIcon=mxgraph.aws4.redshift;" vertex="1" parent="7fyzseE-kv-z3HTarfVp-1">
          <mxGeometry x="1010" y="-78" width="78" height="78" as="geometry" />
        </mxCell>
        <mxCell id="7fyzseE-kv-z3HTarfVp-32" value="" style="rounded=1;whiteSpace=wrap;html=1;strokeColor=#FF3333;fillColor=none;strokeWidth=3;" vertex="1" parent="7fyzseE-kv-z3HTarfVp-1">
          <mxGeometry x="770" y="-270" width="370" height="330" as="geometry" />
        </mxCell>
        <mxCell id="Rmsbz3Nnrq9nKO-udLOy-0" value="" style="rounded=0;whiteSpace=wrap;html=1;fillColor=none;strokeColor=#FF8000;strokeWidth=3;" vertex="1" parent="7fyzseE-kv-z3HTarfVp-1">
          <mxGeometry x="248" y="-432" width="462" height="710" as="geometry" />
        </mxCell>
        <mxCell id="Rmsbz3Nnrq9nKO-udLOy-2" value="Thailand VPC" style="text;html=1;strokeColor=none;fillColor=none;align=center;verticalAlign=middle;whiteSpace=wrap;rounded=0;fontStyle=1;fontSize=14;" vertex="1" parent="7fyzseE-kv-z3HTarfVp-1">
          <mxGeometry x="1050" y="-260" width="60" height="30" as="geometry" />
        </mxCell>
        <mxCell id="Rmsbz3Nnrq9nKO-udLOy-3" value="Text" style="text;html=1;strokeColor=none;fillColor=none;align=center;verticalAlign=middle;whiteSpace=wrap;rounded=0;fontSize=14;" vertex="1" parent="7fyzseE-kv-z3HTarfVp-1">
          <mxGeometry x="590" y="-320" width="60" height="30" as="geometry" />
        </mxCell>
        <mxCell id="Rmsbz3Nnrq9nKO-udLOy-5" value="External SaaS" style="text;html=1;strokeColor=none;fillColor=none;align=center;verticalAlign=middle;whiteSpace=wrap;rounded=0;fontStyle=1;fontSize=14;" vertex="1" parent="7fyzseE-kv-z3HTarfVp-1">
          <mxGeometry x="1010" y="-550" width="60" height="30" as="geometry" />
        </mxCell>
        <mxCell id="Rmsbz3Nnrq9nKO-udLOy-7" value="AWS Global" style="text;html=1;strokeColor=none;fillColor=none;align=center;verticalAlign=middle;whiteSpace=wrap;rounded=0;fontStyle=1;fontSize=14;" vertex="1" parent="7fyzseE-kv-z3HTarfVp-1">
          <mxGeometry x="260" y="-421.75" width="60" height="30" as="geometry" />
        </mxCell>
        <mxCell id="Rmsbz3Nnrq9nKO-udLOy-8" value="Roche" style="text;html=1;strokeColor=none;fillColor=none;align=center;verticalAlign=middle;whiteSpace=wrap;rounded=0;fontStyle=1;fontSize=14;" vertex="1" parent="7fyzseE-kv-z3HTarfVp-1">
          <mxGeometry x="-3" y="116" width="60" height="30" as="geometry" />
        </mxCell>
      </root>
    </mxGraphModel>
  </diagram>
</mxfile>
